<?xml version="1.0" standalone="no"?>
<!DOCTYPE svg PUBLIC "-//W3C//DTD SVG 20010904//EN"
 "http://www.w3.org/TR/2001/REC-SVG-20010904/DTD/svg10.dtd">
<svg version="1.0" xmlns="http://www.w3.org/2000/svg"
 width="256.000000pt" height="256.000000pt" viewBox="0 0 256.000000 256.000000"
 preserveAspectRatio="xMidYMid meet">
<metadata>
Created by potrace 1.11, written by Peter Selinger 2001-2013
</metadata>
<g transform="translate(0.000000,256.000000) scale(0.100000,-0.100000)"
fill="#000000" stroke="none">
<path d="M672 2136 l-361 -365 25 -51 c13 -27 40 -67 59 -88 19 -21 43 -59 54
-85 37 -86 144 -161 248 -174 68 -8 67 -8 80 -16 7 -4 22 -38 33 -75 27 -89
61 -162 75 -162 19 0 45 -35 56 -74 7 -26 16 -36 29 -36 15 0 20 7 20 26 0 23
2 25 16 13 23 -19 44 -64 44 -94 0 -15 14 -59 30 -100 31 -74 35 -92 32 -157
-2 -34 -4 -37 -44 -44 -24 -4 -47 -8 -52 -8 -13 -1 -23 -36 -18 -63 3 -15 10
-22 18 -19 27 10 38 -25 39 -121 0 -68 4 -96 14 -102 13 -8 12 -16 -5 -91 -3
-14 -7 -63 -9 -110 l-3 -85 168 175 c92 96 173 180 179 185 24 19 349 345 600
599 l254 258 -71 71 c-38 40 -211 215 -383 389 -173 174 -402 406 -510 515
-108 109 -209 210 -226 226 l-29 27 -362 -364z"/>
</g>
</svg>
